/* XPM */
static char *_d4cba415bc445caa481b3cd5cf3a8ca0Dsc8R70wKIoysAK[] = {
/* columns rows colors chars-per-pixel */
"40 40 9 1 ",
"  c #AFAFFF",
". c black",
"X c gray15",
"o c gray25",
"O c #D2586F",
"+ c #808080",
"@ c #F28B9E",
"# c gray96",
"1 c #32313B",
/* pixels */
"1111111111111111111111111111111111111111",
"1                                      1",
"1                                      1",
"1                                      1",
"1                              ..      1",
"1                             .oo.     1",
"1                            .XXo.     1",
"1         ...               .XXXoo.    1",
"1        .+++......     .....XXXoo.    1",
"1        .+++.Xoooo.....ooooo..XXo.    1",
"1       .+o++.XoXXoooo+oooo+ooo.Xo.    1",
"1       .++o..Xo..XXooo+oo+++o+o.X.    1",
"1      .o+++. .XOO.XXoo++oo++o++o..    1",
"1      .+oo.  .XO@O.XXo+++o++++++X.    1",
"1      .o++.  .XO@@O.X++++++++++...    1",
"1      .+oo.   .XO@O.X+++++++++....    1",
"1      .o++.   .XXOX.X+++++++++..+.    1",
"1      .ooo.    .XXX+++o..+++++#.#.    1",
"1      .o+++.   .Xoo++o....+##+..#...  1",
"1      .++ooo....oo+++.+...+###oo##.   1",
"1       .ooo..+o.++++#+##..+#####o...  1",
"1       .oo.ooo+.ooo+###...##++###.    1",
"1        ..ooo++Xo++..+#oo###..##+.    1",
"1        .+oo++o++++############+.     1",
"1       .o+o++oo++++o..o####OO#+.      1",
"1       .o++++oo+++++oo######...       1",
"1       .o++++o+++o+++++++++o.         1",
"1       .o++++o+++o+oo+++#+oo+.        1",
"1      .ooo+++o+++++oooo##o+++o.       1",
"1      .oooo++###++++oo.#+.####o.      1",
"1      .+o++++####+++++....#####.      1",
"1      .#++++##+...#+#+#.  .##+#.      1",
"1      .####+XX.   .####+. .++##.      1",
"1      .####...    .+####.  ....       1",
"1      .###.        .#++#.             1",
"1       ...         .++#.              1",
"1                    ...               1",
"1                                      1",
"1                                      1",
"1111111111111111111111111111111111111111"
};
