/* XPM */
static char *_d3b99c6128b41e682add736bccfc604RD1Wehe71cg4pw9d[] = {
/* columns rows colors chars-per-pixel */
"40 40 112 2 ",
"   c #AFAFFF",
".  c #FFA909",
"X  c #FFB40D",
"o  c #FFBA0C",
"O  c #FFB412",
"+  c #FFBC13",
"@  c #FFB51C",
"#  c #FFBC1A",
"$  c #FFB824",
"%  c #FFBE28",
"&  c #FFBF31",
"*  c #FBCC0E",
"=  c #FBD30E",
"-  c #FEDE0D",
";  c #FFC415",
":  c #FDCB13",
">  c #FDC41B",
",  c #FECB1B",
"<  c #FFD115",
"1  c #FDD61E",
"2  c #FFDC1C",
"3  c #FFE20D",
"4  c #FFE114",
"5  c #FFE01A",
"6  c #FBC223",
"7  c #FFCB24",
"8  c #FCC52A",
"9  c #FDCB2C",
"0  c #FDD423",
"q  c #FFDE25",
"w  c #FCD32C",
"e  c #FFDD2C",
"r  c #FFC234",
"t  c #FFC034",
"y  c #FFC735",
"u  c #FCC331",
"i  c #FFCA35",
"p  c #FFCE36",
"a  c #F8C538",
"s  c #F8C638",
"d  c #FFC73C",
"f  c #FAC739",
"g  c #FFCB3E",
"h  c #FFCB3A",
"j  c #FAD131",
"k  c #FAD331",
"l  c #FFD532",
"z  c #FFD632",
"x  c #FFD037",
"c  c #FFD931",
"v  c #FFDC30",
"b  c #FFDD31",
"n  c #FFDA34",
"m  c #FFDB34",
"M  c #FFD936",
"N  c #FFDC35",
"B  c #FFD439",
"V  c #FFD738",
"C  c #FFD03C",
"Z  c #FFD03D",
"A  c #FFD63C",
"S  c #FFDB39",
"D  c #FFDA3B",
"F  c #FFDC39",
"G  c #FFDD3A",
"H  c #FFDB3C",
"J  c #FFDB3D",
"K  c #FFDE3D",
"L  c #FFE025",
"P  c #FFE026",
"I  c #FFE027",
"U  c #FFC841",
"Y  c #FBCF45",
"T  c #FDCC45",
"R  c #FBCB4C",
"E  c #FAD040",
"W  c #FFD141",
"Q  c #FFD744",
"!  c #FFD446",
"~  c #FFDB41",
"^  c #FFDA44",
"/  c #FFDB44",
"(  c #FFD947",
")  c #FFD14C",
"_  c #FFD34D",
"`  c #FFD34F",
"'  c #FFD948",
"]  c #FFD84A",
"[  c #FFD84B",
"{  c #FFDB4A",
"}  c #FFD84C",
"|  c #FFD94F",
" . c #FBCF5C",
".. c #FED655",
"X. c #FFD950",
"o. c #FFD851",
"O. c #FFD852",
"+. c #FFD855",
"@. c #FFD856",
"#. c #FFD759",
"$. c #FFD75B",
"%. c #FFD75C",
"&. c #FFD65D",
"*. c #FFD75D",
"=. c #FFD55F",
"-. c #FFD65E",
";. c #FDD25C",
":. c #FFD858",
">. c #FFD661",
",. c #FFD662",
"<. c #FFD665",
"A. c #32313B",
/* pixels */
"A.A.A.A.A.A.A.A.A.A.A.A.A.A.A.A.A.A.A.A.A.A.A.A.A.A.A.A.A.A.A.A.A.A.A.A.A.A.A.A.",
"A.                                                                            A.",
"A.                                                                            A.",
"A.                                                                            A.",
"A.                              ; ; ; : : < < , , ; ;                         A.",
"A.                          ; : = - 3 3 3 3 3 3 4 5 2 , ; ;                   A.",
"A.                      ; ; = 3 3 4 4 4 4 3 3 3 4 3 4 4 q 7 ;                 A.",
"A.                    ; * - 4 4 4 4 4 4 4 4 4 4 4 4 4 4 4 5 e >               A.",
"A.                  ; = 4 5 5 5 5 4 4 4 4 5 5 4 4 5 5 4 4 4 4 P , ;           A.",
"A.                ; = 5 5 5 5 5 5 5 5 5 5 5 5 5 5 5 5 5 5 5 5 5 P ,           A.",
"A.              ; * 5 5 5 5 5 < < < < < < < < < < < < < 5 5 5 5 5 e >         A.",
"A.            ; : 2 2 o X ; 2 ; . . . . . . . . . . . X 2 : X X 2 2 c ;       A.",
"A.            ; 1 q q X + . ; ; . . . . . . . . . . . + ; . ; . q q P 7       A.",
"A.          ; : q q q + ; 1 + + . . . . . o X . . . . X + , , X q q q n ;     A.",
"A.          ; 1 q q q , O q q q . . . . * 4 o . . . . 0 q q ; + q q q e 7     A.",
"A.          : e e e e 0 . e e e X . . < < 4 o . . . . e e e X 7 e e e e l ;   A.",
"A.        ; , e e e e e O > e e + . . X . 4 o . . . X e e 7 . e e e e e D ;   A.",
"A.        ; 0 v v v v v 7 . e v > . . . . 4 o . . . + v v O > v v v v v K >   A.",
"A.        ; w N N N N N N # O n w . . . . 4 o . . . 7 N # O n N N N N N G 7   A.",
"A.        ; w G G G G G G n O O l O . . . 4 o . . . l # . l G G G G G G G 9   A.",
"A.        ; j H H H H H H H D 6 . . . . . . . . . . . # V H H H H H H H H 7   A.",
"A.        ; j ~ ~ ~ ~ ~ ~ ~ ~ ~ A 9 . . . . . . . 8 V ~ ~ ~ ~ ~ ~ ~ ~ ~ ^ 7   A.",
"A.        ; 9 ^ ^ ^ ^ ^ ^ ^ ^ ^ ^ ^ p . . . . . 8 ^ ^ ^ ^ ^ ^ ^ ^ ^ ^ ^ ' ;   A.",
"A.        ; 7 ^ ' ' ' ' ' ' ' ' ' ' ' C @ . O i ' ' ' ' ' ' ' ' ' ' ' ^ ! ;   A.",
"A.          > ' } } } } } } } } } } } } ' . W } } } } } } } } } } } } ' x ;   A.",
"A.          ; E } } } } } } } O.} } } } y . % } } } } } } } } } } } } O.7     A.",
"A.          ; 8 O.O.O.O.O.O.O.O.O.O.O.O.g . u O.O.O.O.O.O.O.O.O.O.O.O.! ;     A.",
"A.            ; Y @.@.@.@.@.@.@.@.@.@.@.u . $ @.@.@.@.@.@.@.@.@.@.@.@.7       A.",
"A.            ; 6 ..#.#.#.#.#.#.#.#.d $ . . . @ r #.#.#.#.#.#.#.#.:.C ;       A.",
"A.              ; u #.*.*.*.*.*.*.U . . . . . . . & *.*.*.*.*.*.*.` ;         A.",
"A.                ; a *.*.*.*.*.r . . . . . . . . . $ *.*.*.*.*.` >           A.",
"A.                  ; a *.>.>.>.>.>.>.>.>.>.>.>.>.>.>.>.>.>.>.` > ;           A.",
"A.                    ; 8 ;.>.<.<.<.<.<.<.<.<.<.<.<.<.<.<.*.h ;               A.",
"A.                      ; > a ;.<.<.<.<.<.<.<.<.<.<.<.>.T > ;                 A.",
"A.                          ; > u R  .<.<.<.<.<.>.R a > ;                     A.",
"A.                              ; ; ; > 6 6 6 > ; ; ;                         A.",
"A.                                                                            A.",
"A.                                                                            A.",
"A.                                                                            A.",
"A.A.A.A.A.A.A.A.A.A.A.A.A.A.A.A.A.A.A.A.A.A.A.A.A.A.A.A.A.A.A.A.A.A.A.A.A.A.A.A."
};
