/* XPM */
static char *c50[] = {
/* columns rows colors chars-per-pixel */
"40 40 2 1 ",
"  c #AFAFFF",
"+ c #32313B",
/* pixels */
"++++++++++++++++++++++++++++++++++++++++",
"+                                      +",
"+                                      +",
"+                                      +",
"+                                      +",
"+                                      +",
"+                                      +",
"+                                      +",
"+                                      +",
"+                                      +",
"+                                      +",
"+                                      +",
"+                                      +",
"+                                      +",
"+                                      +",
"+                                      +",
"+                                      +",
"+                                      +",
"+                                      +",
"+                                      +",
"+                                      +",
"+                                      +",
"+                                      +",
"+                                      +",
"+                                      +",
"+                                      +",
"+                                      +",
"+                                      +",
"+                                      +",
"+                                      +",
"+                                      +",
"+                                      +",
"+                                      +",
"+                                      +",
"+                                      +",
"+                                      +",
"+                                      +",
"+                                      +",
"+                                      +",
"++++++++++++++++++++++++++++++++++++++++"
};