/* XPM */
static char *_260c9200ac04f82ea924ade4504b14ewnmsrnLphebRAPFG[] = {
/* columns rows colors chars-per-pixel */
"40 40 149 2 ",
"   c #AFAFFF",
".  c #1D1208",
"X  c #241A12",
"o  c #281E15",
"O  c #2C241B",
"+  c #30271E",
"@  c #332B22",
"#  c #382F27",
"$  c #383027",
"%  c #3D352D",
"&  c #3F382E",
"*  c #3F3730",
"=  c #40372F",
"-  c #40382F",
";  c #403730",
":  c #423B33",
">  c #473F38",
",  c #474039",
"<  c #4A433C",
"1  c #440144",
"2  c #5A1E59",
"3  c #5D255D",
"4  c #70006E",
"5  c #7F147D",
"6  c #723273",
"7  c #773A79",
"8  c #4F4941",
"9  c #534C45",
"0  c #564F49",
"q  c #57514B",
"w  c #5A534D",
"e  c #5C5650",
"r  c #5F5953",
"t  c #625C56",
"y  c #655F59",
"u  c #66615B",
"i  c #69635D",
"p  c #666360",
"a  c #6C6661",
"s  c #6E6A63",
"d  c #706B65",
"f  c #736E6A",
"g  c #76716C",
"h  c #79746E",
"j  c #79786E",
"k  c #777471",
"l  c #7B7671",
"z  c #7D7976",
"x  c #7F7D7C",
"c  c #817C76",
"v  c #837D7A",
"b  c #85827C",
"n  c #970095",
"m  c #812681",
"M  c #8E788D",
"N  c #868483",
"B  c #8A8682",
"V  c #8C8985",
"C  c #8D8D8B",
"Z  c #908B86",
"A  c #928E8B",
"S  c #94918E",
"D  c #949492",
"F  c #999694",
"G  c #969A91",
"H  c #9D9996",
"J  c #9C9C9C",
"K  c #A09D9B",
"L  c #A3A19B",
"P  c #A8A39E",
"I  c #A3A3A3",
"U  c #A9A6A1",
"Y  c #AAAAA7",
"T  c #A8A1A8",
"R  c #A7A8A9",
"E  c #ABABAB",
"W  c #B1AEAC",
"Q  c #B3B0AE",
"!  c #B2B9AD",
"~  c #ADAFB0",
"^  c #AFB0B1",
"/  c #B3B3B3",
"(  c #B9B7B6",
")  c #BBB9B7",
"_  c #B6B6B8",
"`  c #B7BABC",
"'  c #BCBBBB",
"]  c #C1BFBD",
"[  c #C4C1BE",
"{  c #BEBFC1",
"}  c #C0BFC1",
"|  c #BFC0C1",
" . c #C5C4C4",
".. c #C8C5C2",
"X. c #C6CEC6",
"o. c #CBC9C7",
"O. c #C7C7C8",
"+. c #CBCBCB",
"@. c #D0CFCE",
"#. c #C6D1C6",
"$. c #D2D1CF",
"%. c #CFD0D1",
"&. c #D4D4D4",
"*. c #D9D7D6",
"=. c #D7DCD7",
"-. c #D7D7D8",
";. c #D7D8D9",
":. c #DADBDC",
">. c #E3E1DF",
",. c #DCDFE2",
"<. c #E3E3E3",
"1. c #E2ECE4",
"2. c #E7E8E9",
"3. c #ECEBEA",
"4. c #E9EBEC",
"5. c #EBECEE",
"6. c #ECEDEF",
"7. c #ECEDEE",
"8. c #EFEFEF",
"9. c #EDEDED",
"0. c #EAEBEB",
"q. c #EDF6EF",
"w. c #EFEFF0",
"e. c #EDFEF0",
"r. c #F0F1F1",
"t. c #F2F2F2",
"y. c #F4F3F3",
"u. c #F5F5F3",
"i. c #F2F4F5",
"p. c #F4F4F4",
"a. c #F6F5F5",
"s. c #F5F6F7",
"d. c gray97",
"f. c #F5F5F6",
"g. c #F6F7F8",
"h. c #F7F8F8",
"j. c #F9F9F9",
"k. c #F8F9FA",
"l. c #F9F9FA",
"z. c #F9FAFB",
"x. c #FBFBFB",
"c. c #FBFBFC",
"v. c #FAFCFD",
"b. c #FDFCFD",
"n. c #FDFFFF",
"m. c white",
"M. c #FEFFFF",
"N. c #FEFEFE",
"A. c #32313B",
/* pixels */
"A.A.A.A.A.A.A.A.A.A.A.A.A.A.A.A.A.A.A.A.A.A.A.A.A.A.A.A.A.A.A.A.A.A.A.A.A.A.A.A.",
"A.                                                                            A.",
"A.                                                                            A.",
"A.                                                                            A.",
"A.                                                                            A.",
"A.                  $ w w %                             , e 9 +               A.",
"A.              @ S *.p.z.<.y                         B 8.z.y.+.h o           A.",
"A.            - @.n.n.8.v.n.v       % u c l w @       Q n.g.8.n.n.I O         A.",
"A.          @  .n.-.&.<.&.8.v   ; K <.n.n.n.n.&.v O   E 4.-.<.-.:.n.S         A.",
"A.          z 5.O.O.;.+.% F d < 3.n.n.t.0.0.t.n.n...O D f e <.+.O.&.:.w       A.",
"A.        $ E +._ ' %.y   X f n.n.z.z.8.0.0.t.z.p.n.>.,     B &._ _ &.V       A.",
"A.        8 E ^ E  .z     % p.n.p.) ] n.c.n.<.Q @.n.n.o.X   @ H { E _ F $     A.",
"A.        q I J E C @     o.n...t g d a p.' t h i v z.n.Z     > I I I D :     A.",
"A.        9 J I J :     i n.@.< Q n.n.H > y &.n.t.s g n.t.%     w R I C :     A.",
"A.        < J ~ q       / n.a U n.n.n.n., U n.n.n.n.u / n.b       f ` N $     A.",
"A.        % J g       : 2.w.d 8.n.) , n.c $.E 9 x.n.H z n.(       @ D N       A.",
"A.          q -       y h.0.u <.n.' i <.@ H ..r n.n.Z b n.-.&       , q       A.",
"A.                    h g.p.B y p.n.u.t L j L n.n.' 0 @.8.<.9                 A.",
"A.                    v i.;.0.c u l y S e.#.s d g e / 8.;.<.e                 A.",
"A.                    c 8.&.;.4.( ! M 6 5 m 7 K Y -.2.+.-.:.e                 A.",
"A.                    z 2.+.+.+.;.q._ 1 n 4 3 1.<.&.+.+.&.-.w                 A.",
"A.                    l <.+.+.+.+.O.1.T 1 2 X.=.O.+.+.+.+.&.w                 A.",
"A.                    g :.O.' O.-.-.+.1.v I 1.+.-.&.' ' +.+.w                 A.",
"A.                    g -.O.E V B S W { b G } Y A B F _ O.O.q                 A.",
"A.                    f +.'  .E A v t v f c g a b H _ ' ' | q                 A.",
"A.            t B 9   s +._ _ _ O.:.l / Y [ A H &. ._ _ _ ' <   a B 9         A.",
"A.            W n.&.i u | / / / E ' S s a a g E _ / / / _ E w b 8.n.g         A.",
"A.            t n.0.V y _ E E E E E / J J F I ^ E E E E E I t W p.0.%         A.",
"A.              J n.L e / I I I I I E E E E E R I I I I E H w -.n.a           A.",
"A.              . ] ..y E J J J E R N D E E V C E I J J I D s 5.B             A.",
"A.            @ w ( Y r I J J E z 9 i w N k t u 9 C E F J C u +.F <           A.",
"A.        @ t I &.,.D u ^ J E p 9 [ n.>.@ t z.z.P , x E I J u _ :.+.S 9       A.",
"A.      % z I ~ E I z 9 N I z y z.n.p.n.t A n.p.n.&.w C J k 9 S I E E J a $   A.",
"A.      > e : > < : %   @ , # Y +.A / +.r g &.W A -.B @ >     % > < = < w *   A.",
"A.                            : % : , : % % > , : % :                         A.",
"A.                                                                            A.",
"A.                                                                            A.",
"A.                                                                            A.",
"A.                                                                            A.",
"A.A.A.A.A.A.A.A.A.A.A.A.A.A.A.A.A.A.A.A.A.A.A.A.A.A.A.A.A.A.A.A.A.A.A.A.A.A.A.A."
};
